<svg width="260" height="178" viewBox="0 0 260 178" fill="none" xmlns="http://www.w3.org/2000/svg">
  <path
    d="M64.166 156.164H56.1078C52.8004 156.164 50.0942 158.963 50.0942 162.385V170.721C50.0942 174.142 52.8004 176.942 56.1078 176.942H64.166C67.4735 176.942 70.1796 174.142 70.1796 170.721V162.385C70.1796 158.932 67.5036 156.164 64.166 156.164Z"
    fill="#A590C2" />
  <path
    d="M14.0718 157.016H6.01359C2.70611 157.016 0 159.815 0 163.237V171.573C0 174.994 2.70611 177.793 6.01359 177.793H14.0718C17.3793 177.793 20.0854 174.994 20.0854 171.573V163.237C20.0854 159.784 17.4093 157.016 14.0718 157.016Z"
    fill="#A590C2" />
  <path
    d="M64.166 130.02H56.1078C52.8004 130.02 50.0942 132.819 50.0942 136.24V144.576C50.0942 147.998 52.8004 150.797 56.1078 150.797H64.166C67.4735 150.797 70.1796 147.998 70.1796 144.576V136.24C70.1796 132.788 67.5036 130.02 64.166 130.02Z"
    fill="#A590C2" />
  <path
    d="M39.1201 130.02H31.0619C27.7545 130.02 25.0483 132.819 25.0483 136.24V144.576C25.0483 147.998 27.7545 150.797 31.0619 150.797H39.1201C42.4276 150.797 45.1337 147.998 45.1337 144.576V136.24C45.1337 132.788 42.4276 130.02 39.1201 130.02Z"
    fill="#A590C2" />
  <path
    d="M89.2114 130.02H81.1532C77.8458 130.02 75.1396 132.819 75.1396 136.24V170.704C75.1396 174.126 77.8458 176.925 81.1532 176.925H89.2114C92.5189 176.925 95.225 174.126 95.225 170.704V136.24C95.225 132.819 92.549 130.02 89.2114 130.02Z"
    fill="#A590C2" />
  <path
    d="M64.166 77.7383H56.1078C52.8004 77.7383 50.0942 80.5377 50.0942 83.9592V118.423C50.0942 121.845 52.8004 124.644 56.1078 124.644H64.166C67.4735 124.644 70.1796 121.845 70.1796 118.423V83.9592C70.1796 80.5377 67.5036 77.7383 64.166 77.7383Z"
    fill="#A590C2" />
  <path
    d="M252.783 0.0311045H211.861C208.884 0.0311045 206.238 1.86627 205.156 4.72789L155.423 118.843L105.27 4.69678C104.188 1.83517 101.512 0 98.5649 0H57.3719C53.3428 0 50.1255 3.39039 50.1255 7.49619V64.814C50.1255 68.2355 52.8316 71.0349 56.1391 71.0349H66.1517C71.143 71.0349 75.1721 75.2029 75.1721 80.3663V92.3104C75.1721 95.7319 77.8782 98.5313 81.1857 98.5313H89.2439C92.5513 98.5313 95.2574 95.7319 95.2574 92.3104V71.0349V66.8669V62.5745L135.218 172.933C136.27 175.857 138.976 177.786 142.013 177.786H168.353C171.419 177.786 174.126 175.857 175.148 172.933L214.868 62.7922V170.321C214.868 174.457 218.145 177.786 222.114 177.786H252.753C256.782 177.786 260 174.395 260 170.321V7.49619C260.03 3.35929 256.752 0.0311045 252.783 0.0311045Z"
    fill="#A590C2" />
  <path
    d="M89.2114 103.906H81.1532C77.8458 103.906 75.1396 106.706 75.1396 110.127V118.463C75.1396 121.885 77.8458 124.684 81.1532 124.684H89.2114C92.5189 124.684 95.225 121.885 95.225 118.463V110.127C95.225 106.675 92.5189 103.906 89.2114 103.906Z"
    fill="#A590C2" />
</svg>