<svg width="100%" height="100%" viewBox="0 0 500 500" fill="currentColor" class="w-8 h-8 sm:w-16 sm:h-16
										text-white/80
									" xmlns="http://www.w3.org/2000/svg"><path d="M43.1854 306.772C43.1847 289.941 43.1843 281.526 48.6502 278.37C54.116 275.214 61.4039 279.422 75.9797 287.839L109.05 306.934C114.385 310.014 117.052 311.554 118.516 314.09C119.981 316.627 119.981 319.707 119.981 325.866L119.981 364.051C119.981 380.881 119.981 389.296 114.515 392.452C109.05 395.607 101.762 391.4 87.1872 382.985L54.1182 363.892C48.7837 360.812 46.1165 359.272 44.652 356.736C43.1875 354.199 43.1874 351.12 43.1871 344.96L43.1854 306.772Z" fill="currentColor"></path><path d="M136.151 297.862C130.816 300.942 128.149 302.482 125.22 302.482C122.291 302.482 119.623 300.942 114.288 297.862L81.2138 278.764C66.6399 270.349 59.353 266.142 59.3531 259.831C59.3533 253.52 66.6404 249.312 81.2146 240.898L114.284 221.805C119.619 218.725 122.287 217.185 125.216 217.185C128.145 217.185 130.812 218.725 136.147 221.806L169.222 240.903C183.795 249.318 191.082 253.526 191.082 259.837C191.082 266.148 183.795 270.355 169.221 278.769L136.151 297.862Z" fill="currentColor"></path><path d="M217.721 275.483C217.721 269.323 217.721 266.243 219.185 263.706C220.65 261.17 223.317 259.63 228.652 256.55L274.844 229.881C283.589 224.832 287.961 222.307 291.241 224.201C294.52 226.094 294.52 231.143 294.52 241.241L294.52 294.572C294.52 300.732 294.52 303.812 293.056 306.349C291.591 308.885 288.924 310.425 283.589 313.505L250.515 332.601C235.94 341.016 228.652 345.223 223.187 342.068C217.721 338.912 217.721 330.497 217.721 313.668L217.721 275.483Z" fill="currentColor"></path><path d="M130.456 325.866C130.456 319.705 130.456 316.625 131.921 314.089C133.385 311.552 136.053 310.012 141.387 306.932L174.456 287.84C189.03 279.425 196.318 275.218 201.783 278.373C207.249 281.529 207.249 289.944 207.249 306.773L207.249 344.958C207.249 351.118 207.249 354.198 205.785 356.735C204.32 359.271 201.653 360.811 196.318 363.891L163.25 382.984C148.675 391.398 141.388 395.606 135.922 392.45C130.456 389.295 130.456 380.88 130.456 364.05L130.456 325.866Z" fill="currentColor"></path><path d="M324.663 229.876C315.918 224.827 311.545 222.303 308.266 224.197C304.987 226.09 304.987 231.139 304.987 241.237L304.99 294.575C304.99 300.734 304.99 303.814 306.455 306.351C307.919 308.887 310.586 310.427 315.921 313.507L348.992 332.601C363.566 341.015 370.853 345.223 376.319 342.067C381.784 338.912 381.785 330.498 381.786 313.669L381.788 275.48C381.789 269.319 381.789 266.239 380.324 263.702C378.86 261.165 376.192 259.625 370.857 256.545L324.663 229.876Z" fill="currentColor"></path><path d="M392.259 275.48C392.259 269.32 392.259 266.24 393.723 263.704C395.188 261.167 397.855 259.627 403.19 256.547L436.258 237.455C450.833 229.04 458.121 224.833 463.586 227.988C469.052 231.144 469.052 239.559 469.052 256.388L469.052 294.573C469.052 300.733 469.052 303.813 467.588 306.35C466.123 308.886 463.456 310.426 458.121 313.506L425.052 332.598C410.478 341.013 403.19 345.22 397.725 342.065C392.259 338.909 392.259 330.495 392.259 313.665L392.259 275.48Z" fill="currentColor"></path><path d="M223.416 247.48C218.081 250.56 215.414 252.1 212.485 252.1C209.555 252.1 206.888 250.56 201.553 247.479L168.479 228.382C153.905 219.967 146.618 215.759 146.618 209.448C146.618 203.137 153.905 198.93 168.479 190.516L201.555 171.419C206.89 168.339 209.558 166.799 212.487 166.799C215.416 166.799 218.083 168.339 223.418 171.42L256.493 190.517C271.066 198.932 278.353 203.14 278.353 209.451C278.353 215.762 271.066 219.969 256.492 228.383L223.416 247.48Z" fill="currentColor"></path><path d="M310.686 197.094C305.351 200.175 302.683 201.715 299.754 201.715C296.825 201.715 294.158 200.174 288.823 197.094L255.748 177.996C241.174 169.581 233.888 165.374 233.888 159.063C233.888 152.752 241.175 148.545 255.749 140.13L288.819 121.037C294.154 117.957 296.821 116.417 299.75 116.417C302.679 116.417 305.347 117.957 310.681 121.037L343.758 140.133C358.334 148.548 365.622 152.755 365.622 159.066C365.622 165.377 358.334 169.585 343.759 178L310.686 197.094Z" fill="currentColor"></path><path d="M397.954 247.477C392.619 250.557 389.951 252.097 387.022 252.097C384.093 252.097 381.426 250.557 376.091 247.477L323.346 217.025C317.516 213.659 314.602 211.976 314.602 209.451C314.602 206.927 317.516 205.244 323.346 201.878L376.091 171.426C381.426 168.346 384.093 166.806 387.022 166.806C389.951 166.806 392.618 168.346 397.953 171.426L431.022 190.519C445.597 198.933 452.884 203.141 452.884 209.452C452.884 215.763 445.597 219.97 431.022 228.385L397.954 247.477Z" fill="currentColor"></path><path d="M223.413 146.707C218.078 149.787 215.411 151.327 212.482 151.327C209.553 151.327 206.886 149.787 201.551 146.707L168.482 127.614C153.907 119.199 146.62 114.992 146.62 108.681C146.62 102.37 153.907 98.1622 168.482 89.7474L201.556 70.6518C206.891 67.5718 209.559 66.0318 212.488 66.0318C215.417 66.0318 218.084 67.5718 223.419 70.6519L256.488 89.7444C271.063 98.1592 278.35 102.367 278.35 108.678C278.35 114.989 271.062 119.196 256.488 127.611L223.413 146.707Z" fill="currentColor"></path><path d="M130.453 155.613C130.454 138.784 130.455 130.37 135.92 127.215C141.386 124.059 148.673 128.267 163.247 136.682L169.219 140.129C183.793 148.544 191.081 152.752 191.08 159.063C191.08 165.374 183.793 169.581 169.219 177.996L163.246 181.444C148.671 189.859 141.383 194.067 135.917 190.911C130.452 187.755 130.452 179.34 130.453 162.509L130.453 155.613Z" fill="currentColor"></path></svg>